<svg width="48" height="48" viewBox="0 0 48 48" fill="none" xmlns="http://www.w3.org/2000/svg">
<circle cx="24" cy="24" r="22.0745" fill="#171622"/>
<path fill-rule="evenodd" clip-rule="evenodd" d="M43.8123 22.9418C44.1058 23.3465 44.5877 22.6766 44.5441 22.1785C43.6221 11.6416 34.7762 3.3765 24 3.3765V3.3765C23.6305 3.3765 23.3189 3.64786 23.2625 4.01303C22.6908 7.70961 22.7984 11.0611 25.2229 13.2421C28.979 16.621 31.19 18.1247 35.9016 18.1247C40.3613 18.1247 42.3419 20.8899 43.6049 22.6533L43.6054 22.654C43.6766 22.7533 43.7454 22.8495 43.8123 22.9418V22.9418ZM27.6647 6.12543C27.6647 6.92302 27.0181 7.56959 26.2205 7.56959C25.4229 7.56959 24.7764 6.92302 24.7764 6.12543C24.7764 5.32785 25.4229 4.68128 26.2205 4.68128C27.0181 4.68128 27.6647 5.32785 27.6647 6.12543ZM33.3678 8.42063C33.3678 8.89065 32.9868 9.27168 32.5167 9.27168C32.0467 9.27168 31.6657 8.89065 31.6657 8.42063C31.6657 7.95061 32.0467 7.56959 32.5167 7.56959C32.9868 7.56959 33.3678 7.95061 33.3678 8.42063ZM35.0288 15.6672C35.405 15.6672 35.7099 15.3623 35.7099 14.9861C35.7099 14.6099 35.405 14.305 35.0288 14.305C34.6527 14.305 34.3477 14.6099 34.3477 14.9861C34.3477 15.3623 34.6527 15.6672 35.0288 15.6672ZM28.3458 11.0662C28.3458 11.4424 28.0409 11.7474 27.6647 11.7474C27.2885 11.7474 26.9836 11.4424 26.9836 11.0662C26.9836 10.6901 27.2885 10.3851 27.6647 10.3851C28.0409 10.3851 28.3458 10.6901 28.3458 11.0662ZM34.3477 12.9427C35.054 12.9427 35.6265 12.3702 35.6265 11.6639C35.6265 10.9577 35.054 10.3851 34.3477 10.3851C33.6414 10.3851 33.0689 10.9577 33.0689 11.6639C33.0689 12.3702 33.6414 12.9427 34.3477 12.9427Z" fill="#FBDFAF"/>
<path d="M23.8088 27.2812C26.548 27.2812 29.3353 24.5965 29.3353 23.6268C29.3352 23.4393 29.1901 22.7142 28.1593 22.3371C27.1284 21.96 20.5664 22.0857 19.7618 22.3371C18.9573 22.5885 18.714 23.0873 18.6668 23.6268C18.5721 24.7091 21.6175 27.2812 23.8088 27.2812Z" fill="#FBDFAF"/>
<path fill-rule="evenodd" clip-rule="evenodd" d="M17.0571 28.0529C17.4713 28.0529 17.8071 28.3887 17.8071 28.8029C17.8071 30.4519 19.1439 31.7886 20.7928 31.7886C21.8809 31.7886 22.8338 31.2071 23.3566 30.3342L24 29.2599L24.6434 30.3342C25.1662 31.2071 26.1192 31.7886 27.2072 31.7886C28.8562 31.7886 30.1929 30.4519 30.1929 28.8029C30.1929 28.3887 30.5287 28.0529 30.9429 28.0529C31.3571 28.0529 31.6929 28.3887 31.6929 28.8029C31.6929 31.2803 29.6846 33.2886 27.2072 33.2886C25.9499 33.2886 24.8138 32.771 24 31.9389C23.1862 32.771 22.0502 33.2886 20.7928 33.2886C18.3154 33.2886 16.3071 31.2803 16.3071 28.8029C16.3071 28.3887 16.6429 28.0529 17.0571 28.0529Z" fill="#FBDFAF"/>
</svg>
