<svg width="48" height="48" fill="none" xmlns="http://www.w3.org/2000/svg"><circle cx="24" cy="24" r="22.075" fill="#171622"/><path fill-rule="evenodd" clip-rule="evenodd" d="M43.812 22.942c.294.404.776-.265.732-.764C43.622 11.643 34.776 3.377 24 3.377a.748.748 0 00-.738.637c-.571 3.697-.464 7.048 1.96 9.23 3.757 3.378 5.968 4.882 10.68 4.882 4.46 0 6.44 2.765 7.703 4.528v.001l.207.288zM27.665 6.125a1.444 1.444 0 11-2.889 0 1.444 1.444 0 012.889 0zm5.703 2.296a.851.851 0 11-1.702 0 .851.851 0 011.702 0zm1.66 7.246a.681.681 0 100-1.362.681.681 0 000 1.362zm-6.682-4.6a.681.681 0 11-1.362 0 .681.681 0 011.362 0zm6.002 1.876a1.279 1.279 0 100-2.558 1.279 1.279 0 000 2.558z" fill="#FBDFAF"/><path d="M23.809 27.281c2.739 0 5.526-2.684 5.526-3.654 0-.188-.145-.913-1.176-1.29-1.03-.377-7.593-.251-8.397 0-.805.252-1.048.75-1.095 1.29-.095 1.082 2.95 3.654 5.142 3.654z" fill="#FBDFAF"/><path fill-rule="evenodd" clip-rule="evenodd" d="M17.057 28.053a.75.75 0 01.75.75 2.986 2.986 0 005.55 1.531L24 29.26l.643 1.074a2.986 2.986 0 005.55-1.531.75.75 0 011.5 0A4.486 4.486 0 0124 31.939a4.486 4.486 0 01-7.693-3.136.75.75 0 01.75-.75z" fill="#FBDFAF"/></svg>