<svg width="97" height="97" fill="none" xmlns="http://www.w3.org/2000/svg"><path d="M46.43 50.998c9.167 0 19.39-8.998 15.554-18.578-3.836-9.58-6.453-9.75-9.017-14.071-2.564-4.321-2.504-9.033-1.833-11.693C51.806 3.996 52.868 2 52.868 2s1.17 4.54 7.034 11.068c5.863 6.528 9.074 10.592 9.074 10.592.553.711-.572-.696 0 0 .664.808-.633-.83 0 0 1.464 1.92 2.92 3.851 4.269 5.852 1.485 2.202 2.925 4.444 4.231 6.753A47.203 47.203 0 0180.209 42a51.379 51.379 0 011.959 6.029l.031.121c.497 1.897 1.004 3.837 1.09 5.776l.038.847c.146 3.168.292 6.345-.39 9.518-.478 2.222-1.064 4.39-1.97 6.45a42.922 42.922 0 01-2.928 5.54c-1.052 1.672-2.226 3.311-3.58 4.747-1.513 1.604-3.227 3.043-4.974 4.402a24.819 24.819 0 01-4.304 2.71c-1.807.885-3.706 1.595-5.597 2.303l-.36.135c-2.446.915-5.043 1.227-7.61 1.406-1.231.086-2.459.126-3.683.111a43.801 43.801 0 01-3.572-.107c-2.484-.173-4.998-.475-7.364-1.361l-.349-.13c-1.83-.686-3.667-1.373-5.416-2.23a24.014 24.014 0 01-4.164-2.62c-1.69-1.316-3.35-2.708-4.813-4.26-1.311-1.39-2.446-2.976-3.465-4.595a41.528 41.528 0 01-2.832-5.36c-.878-1.993-1.445-4.092-1.907-6.241-.66-3.072-.519-6.145-.377-9.21v-.005l.037-.815c.082-1.877.573-3.754 1.053-5.59l.03-.117a49.73 49.73 0 011.896-5.834 47.328 47.328 0 011.677-3.738c2.764-5.494 6.206-10.87 12.095-17.107 5.89-6.236 6.083-6.498 7.614-8.467 1.53-1.97 1.65-2.393 2.466-3.595.618-.91 1.247-1.887 1.9-2.796.652-.91.716-.859.846-.819.13.04.397 2.862.906 5.675.508 2.812.483 4.268-.87 5.621-19.04 21.488-6.058 32.604 3.109 32.604z" fill="url(#prefix__paint0_radial_1413_231)"/><path d="M46.43 50.998c9.167 0 19.39-8.998 15.554-18.578-3.836-9.58-6.453-9.75-9.017-14.071-2.564-4.321-2.504-9.033-1.833-11.693C51.806 3.996 52.868 2 52.868 2s1.17 4.54 7.034 11.068c5.863 6.528 9.074 10.592 9.074 10.592.553.711-.572-.696 0 0 .664.808-.633-.83 0 0 1.464 1.92 2.92 3.851 4.269 5.852 1.485 2.202 2.925 4.444 4.231 6.753A47.203 47.203 0 0180.209 42a51.379 51.379 0 011.959 6.029l.031.121c.497 1.897 1.004 3.837 1.09 5.776l.038.847c.146 3.168.292 6.345-.39 9.518-.478 2.222-1.064 4.39-1.97 6.45a42.922 42.922 0 01-2.928 5.54c-1.052 1.672-2.226 3.311-3.58 4.747-1.513 1.604-3.227 3.043-4.974 4.402a24.819 24.819 0 01-4.304 2.71c-1.807.885-3.706 1.595-5.597 2.303l-.36.135c-2.446.915-5.043 1.227-7.61 1.406-1.231.086-2.459.126-3.683.111a43.801 43.801 0 01-3.572-.107c-2.484-.173-4.998-.475-7.364-1.361l-.349-.13c-1.83-.686-3.667-1.373-5.416-2.23a24.014 24.014 0 01-4.164-2.62c-1.69-1.316-3.35-2.708-4.813-4.26-1.311-1.39-2.446-2.976-3.465-4.595a41.528 41.528 0 01-2.832-5.36c-.878-1.993-1.445-4.092-1.907-6.241-.66-3.072-.519-6.145-.377-9.21v-.005l.037-.815c.082-1.877.573-3.754 1.053-5.59l.03-.117a49.73 49.73 0 011.896-5.834 47.328 47.328 0 011.677-3.738c2.764-5.494 6.206-10.87 12.095-17.107 5.89-6.236 6.083-6.498 7.614-8.467 1.53-1.97 1.65-2.393 2.466-3.595.618-.91 1.247-1.887 1.9-2.796.652-.91.716-.859.846-.819.13.04.397 2.862.906 5.675.508 2.812.483 4.268-.87 5.621-19.04 21.488-6.058 32.604 3.109 32.604z" fill="url(#prefix__paint1_radial_1413_231)" fill-opacity=".5"/><path d="M46.43 50.998c9.167 0 19.39-8.998 15.554-18.578-3.836-9.58-6.453-9.75-9.017-14.071-2.564-4.321-2.504-9.033-1.833-11.693C51.806 3.996 52.868 2 52.868 2s1.17 4.54 7.034 11.068c5.863 6.528 9.074 10.592 9.074 10.592.553.711-.572-.696 0 0 .664.808-.633-.83 0 0 1.464 1.92 2.92 3.851 4.269 5.852 1.485 2.202 2.925 4.444 4.231 6.753A47.203 47.203 0 0180.209 42a51.379 51.379 0 011.959 6.029l.031.121c.497 1.897 1.004 3.837 1.09 5.776l.038.847c.146 3.168.292 6.345-.39 9.518-.478 2.222-1.064 4.39-1.97 6.45a42.922 42.922 0 01-2.928 5.54c-1.052 1.672-2.226 3.311-3.58 4.747-1.513 1.604-3.227 3.043-4.974 4.402a24.819 24.819 0 01-4.304 2.71c-1.807.885-3.706 1.595-5.597 2.303l-.36.135c-2.446.915-5.043 1.227-7.61 1.406-1.231.086-2.459.126-3.683.111a43.801 43.801 0 01-3.572-.107c-2.484-.173-4.998-.475-7.364-1.361l-.349-.13c-1.83-.686-3.667-1.373-5.416-2.23a24.014 24.014 0 01-4.164-2.62c-1.69-1.316-3.35-2.708-4.813-4.26-1.311-1.39-2.446-2.976-3.465-4.595a41.528 41.528 0 01-2.832-5.36c-.878-1.993-1.445-4.092-1.907-6.241-.66-3.072-.519-6.145-.377-9.21v-.005l.037-.815c.082-1.877.573-3.754 1.053-5.59l.03-.117a49.73 49.73 0 011.896-5.834 47.328 47.328 0 011.677-3.738c2.764-5.494 6.206-10.87 12.095-17.107 5.89-6.236 6.083-6.498 7.614-8.467 1.53-1.97 1.65-2.393 2.466-3.595.618-.91 1.247-1.887 1.9-2.796.652-.91.716-.859.846-.819.13.04.397 2.862.906 5.675.508 2.812.483 4.268-.87 5.621-19.04 21.488-6.058 32.604 3.109 32.604z" fill="url(#prefix__paint2_radial_1413_231)"/><path fill-rule="evenodd" clip-rule="evenodd" d="M61.984 32.42C65.82 42 55.597 50.998 46.43 50.998c-9.167 0-22.148-11.116-3.109-32.604 1.353-1.353 1.378-2.809.87-5.621a93.294 93.294 0 01-.592-3.854c-.148-1.075-.248-1.8-.314-1.82l-.01-.004c-.123-.04-.201-.064-.837.822-.439.611-.867 1.254-1.288 1.886-.206.307-.409.612-.611.91-.262.386-.452.691-.64.993-.398.64-.786 1.264-1.826 2.601l-.042.054c-1.493 1.921-1.736 2.234-7.572 8.414-5.89 6.237-9.33 11.613-12.095 17.107-.437.87-.847 1.756-1.229 2.652C20.232 57.58 32.96 68.853 48.188 68.853c15.9 0 29.072-12.287 31.406-28.327a46.019 46.019 0 00-2.117-4.26c-1.307-2.31-2.747-4.552-4.232-6.754-1.349-2.001-2.805-3.932-4.269-5.852 0 0-3.21-4.064-9.074-10.592-4.87-5.423-6.502-9.472-6.916-10.69a30.88 30.88 0 00-.285-.043 23.623 23.623 0 00-1.567 4.321c-.671 2.66-.731 7.372 1.833 11.693.88 1.484 1.768 2.479 2.709 3.533 1.797 2.015 3.79 4.25 6.308 10.538z" fill="url(#prefix__paint3_radial_1413_231)"/><path fill-rule="evenodd" clip-rule="evenodd" d="M46.248 75.442c-.023.485-.674.582-.944.177a8.94 8.94 0 00-8.93-3.864 8.904 8.904 0 00-5.407 3.123c-.297.36-.905.222-.917-.244-.108-4.31 2.644-8.084 6.618-8.753 4.4-.74 8.631 2.605 9.451 7.472.119.707.16 1.406.129 2.089zM51.062 75.307c.015.486.665.593.94.192a8.94 8.94 0 018.989-3.724 8.904 8.904 0 015.359 3.207c.29.365.901.237.92-.23.175-4.308-2.518-8.124-6.48-8.855-4.388-.81-8.671 2.47-9.567 7.324a9.869 9.869 0 00-.16 2.086z" fill="#fff"/><defs><radialGradient id="prefix__paint0_radial_1413_231" cx="0" cy="0" r="1" gradientUnits="userSpaceOnUse" gradientTransform="matrix(-14.04608 -47.28843 47.85861 -14.21544 51.117 89.269)"><stop stop-color="#00E2CF"/><stop offset="0" stop-color="#00AE9F"/><stop offset="1" stop-color="#008ECB"/></radialGradient><radialGradient id="prefix__paint1_radial_1413_231" cx="0" cy="0" r="1" gradientUnits="userSpaceOnUse" gradientTransform="matrix(-1.30149 82.43623 -48.8952 -.77195 48.5 9.662)"><stop stop-color="#00A3FF" stop-opacity="0"/><stop offset=".907" stop-color="#5AD4FF" stop-opacity=".565"/><stop offset="1" stop-color="#A0FFF9"/></radialGradient><radialGradient id="prefix__paint2_radial_1413_231" cx="0" cy="0" r="1" gradientUnits="userSpaceOnUse" gradientTransform="matrix(-40.53467 2.95179 -5.14342 -70.63077 51.442 58.567)"><stop stop-color="#8000FF" stop-opacity="0"/><stop offset=".585" stop-color="#A346FF" stop-opacity=".04"/><stop offset=".725" stop-color="#DBB4FF" stop-opacity=".26"/><stop offset="1" stop-color="#F2DCFF"/></radialGradient><radialGradient id="prefix__paint3_radial_1413_231" cx="0" cy="0" r="1" gradientUnits="userSpaceOnUse" gradientTransform="matrix(0 33.4262 -20.5828 0 48.188 35.426)"><stop stop-color="#00F0FF"/><stop offset="1" stop-color="#00F0FF" stop-opacity="0"/></radialGradient></defs></svg>