<svg width="152" height="150" fill="none" xmlns="http://www.w3.org/2000/svg">
  <path
    d="M80.657 13.79c.365.383.598.569.76.803 2.928 4.297 5.812 8.627 8.784 12.895 1.71 2.457 3.532 4.839 5.358 7.214 1.766 2.3 3.63 4.524 5.398 6.824 2.044 2.66 4.116 5.306 6.016 8.067 2.433 3.537 4.884 7.08 6.989 10.809 1.79 3.17 3.22 6.555 4.588 9.936.968 2.393 1.617 4.92 2.31 7.415.321 1.157.411 2.377.598 3.568.231 1.458.623 2.917.647 4.379.064 3.807.398 7.628-.271 11.42-.737 4.18-1.971 8.182-3.807 12.043-1.855 3.901-4.103 7.503-6.855 10.836-2.494 3.02-5.422 5.515-8.589 7.803-2.325 1.678-4.784 3.104-7.4 4.237-2.355 1.018-4.78 1.835-7.278 2.526-5.638 1.556-11.355 1.898-17.112 1.496-3.471-.242-6.983-.663-10.289-1.902-2.717-1.018-5.454-2.024-8.053-3.297-2.051-1.003-4.017-2.262-5.818-3.664-2.361-1.838-4.679-3.784-6.723-5.953-1.832-1.942-3.418-4.159-4.841-6.421a58.11 58.11 0 01-3.957-7.492c-1.226-2.786-2.019-5.719-2.664-8.723-1.005-4.675-.68-9.354-.475-14.019.117-2.678.83-5.359 1.515-7.975.72-2.76 1.591-5.503 2.647-8.154a63.862 63.862 0 013.693-7.756c1.766-3.124 3.713-6.155 5.72-9.134 1.823-2.706 3.793-5.317 5.771-7.914 1.593-2.09 3.332-4.075 4.945-6.151 1.632-2.1 3.202-4.248 4.78-6.389 1.67-2.265 3.354-4.522 4.968-6.828 2.046-2.922 4.017-5.897 6.045-8.832.29-.42.711-.753 1.07-1.126l.217.12c.015.322.042.644.042.966.002 4.788.028 9.576-.03 14.364-.01.702-.298 1.482-.683 2.084-1.558 2.446-3.152 4.873-4.837 7.235-1.597 2.239-3.322 4.388-4.991 6.576-1.375 1.802-2.745 3.606-4.13 5.4-.96 1.246-1.969 2.456-2.907 3.718-1.313 1.767-2.631 3.536-3.856 5.364-1.478 2.204-2.932 4.43-4.26 6.723-.95 1.64-1.698 3.398-2.492 5.122-.44.957-.845 1.935-1.166 2.935-.568 1.775-1.023 3.584-1.591 5.36-1.6 4.985-1.26 10.115-.902 15.183.181 2.573 1.12 5.119 1.907 7.617 1.102 3.499 2.992 6.601 5.124 9.591a31.842 31.842 0 004.977 5.521 34.392 34.392 0 004.963 3.622c1.997 1.189 4.076 2.322 6.256 3.104 2.327.835 4.786 1.453 7.24 1.76 2.92.366 5.896.288 8.846.426 2.74.127 5.397-.417 8.055-.935 3.376-.658 6.46-2.102 9.458-3.684 3.585-1.891 6.597-4.57 9.236-7.588 2.697-3.086 4.961-6.556 6.402-10.365 1.521-4.019 2.788-8.178 2.595-12.595-.105-2.388.028-4.79-.194-7.163-.164-1.747-.664-3.475-1.13-5.182-.546-2.006-1.105-4.019-1.863-5.952-.753-1.926-1.716-3.773-2.662-5.619-.838-1.635-1.709-3.259-2.688-4.812a84.375 84.375 0 00-3.792-5.533c-2.026-2.71-4.17-5.332-6.218-8.023-2.398-3.151-4.79-6.306-7.108-9.516-2-2.768-3.908-5.603-5.815-8.436-.306-.454-.55-1.053-.555-1.585-.042-5.181-.028-10.362-.024-15.543 0-.172.044-.347.106-.807v.005z"
    fill="url(#prefix__prefix__paint0_linear_156_42)" />
  <defs>
    <linearGradient id="prefix__prefix__paint0_linear_156_42" x1="29.39" y1="117.873" x2="132.054" y2="31.515"
      gradientUnits="userSpaceOnUse">
      <stop stop-color="#00A2F8" />
      <stop offset="1" stop-color="#00E5CF" />
    </linearGradient>
  </defs>
</svg>